<svg id="main" width="433" height="149" viewBox="0 0 433 149" fill="none" xmlns="http://www.w3.org/2000/svg" aria-labelledby="main-title" aria-hidden="true"><title id="main-title">Stone Island Homepage</title><path d="M231.47 99.6265C234.511 99.6265 235.34 101.559 235.34 104.597V138.559C235.34 141.873 234.511 143.53 231.47 143.53V147.395H249.991V143.53C246.674 143.253 245.845 142.149 245.845 138.007V104.044C245.845 100.731 246.95 99.0744 249.991 99.0744V95.2086H231.47V99.6265Z" fill="black"></path><path d="M277.086 122.269C274.321 118.956 271.557 116.747 270.728 115.642L265.199 110.12C263.264 108.463 262.435 106.806 262.158 105.426C261.605 104.045 261.605 101.284 262.987 99.9033C264.37 98.5227 266.028 97.9705 267.963 98.2466C269.898 98.5227 272.11 100.179 273.216 101.56C274.321 103.217 275.427 105.15 275.98 106.53C276.256 107.911 276.533 108.739 276.533 109.015C276.533 109.291 276.809 110.396 276.809 110.672H281.232V95.2093H277.915C277.915 95.2093 277.639 96.0377 277.086 96.3138C276.533 96.5899 276.256 96.3138 275.98 96.3138C275.703 96.0377 272.939 94.9332 269.622 94.3809C266.305 93.8287 262.158 94.1048 259.394 95.4854C257.735 96.3138 256.629 97.1421 255.247 98.2466C254.142 99.3511 253.036 101.008 252.483 102.388C251.377 105.15 251.101 108.463 252.206 111.5C253.312 114.538 255.524 117.299 257.182 119.232L261.052 123.097C262.711 124.754 264.646 126.687 265.199 127.515C266.581 128.896 267.963 130.276 269.898 132.485C271.833 134.97 272.386 136.903 272.11 139.112C271.833 141.321 270.728 142.426 269.622 143.254C268.24 144.082 266.305 144.359 264.37 143.53C262.435 142.702 261.052 141.321 260.5 140.217C259.67 139.112 258.841 136.903 258.288 135.247C257.735 133.59 257.182 131.381 257.182 131.381H253.312V147.12H256.077C256.353 146.844 256.906 146.015 257.459 145.739C258.288 145.187 259.117 145.463 259.947 145.739C260.776 146.015 261.605 146.568 262.987 146.844C264.923 147.396 266.858 147.672 269.345 147.672C272.11 147.396 272.939 147.12 274.598 146.291C276.533 145.463 278.744 143.806 280.403 140.769C282.062 137.456 282.338 133.59 281.785 130.553C281.232 127.515 279.574 125.306 277.086 122.269Z" fill="black"></path><path d="M184.758 143.806C180.888 143.806 178.677 141.045 178.677 136.627V122.269C184.206 122.269 189.181 124.202 189.734 129.172H193.328V112.329H189.734C188.905 116.747 184.206 118.403 178.677 118.403V99.6272H181.441C186.417 99.6272 191.116 100.732 194.157 106.806H197.474V95.7615H162.92V99.6272C165.961 99.6272 167.343 101.284 167.343 104.597V138.008C167.343 141.597 166.514 143.254 163.196 143.53V147.396H196.922L198.304 134.142H194.986C192.775 140.493 188.628 143.806 184.758 143.806Z" fill="black"></path><path d="M145.504 99.627C149.374 100.179 150.203 102.388 150.203 107.911V127.515H149.927L130.3 95.7614H115.372V99.627C117.307 100.179 120.901 101.56 122.283 104.597V132.209C122.283 140.217 121.454 142.149 117.584 143.806V147.672H131.682V143.806C127.535 142.978 126.706 140.217 126.706 135.523V108.187L126.982 108.463L151.032 147.948H154.626V106.806C154.626 103.769 155.179 101.56 156.285 100.455C157.39 99.351 160.431 99.3509 160.431 99.3509V95.4853H145.78V99.627H145.504Z" fill="black"></path><path d="M73.6285 95.7611H32.9924V107.082H36.3097C37.6918 100.179 44.0499 99.6268 47.6435 99.6268V138.836C47.6435 142.149 47.0907 143.806 43.497 143.806V147.672H63.4004V143.806C59.2538 143.53 59.2538 141.597 59.2538 138.284V99.6268C63.1239 99.6268 68.6526 100.731 70.0348 107.082H73.6285V95.7611Z" fill="black"></path><path d="M26.0831 122.269C23.3188 118.956 20.5544 116.471 19.7251 115.642L14.1964 110.12C12.2613 108.463 11.432 106.806 11.1556 105.426C10.6027 104.045 10.6027 101.284 11.9849 99.9033C13.3671 98.5227 15.0257 97.9705 16.9608 98.2466C18.8958 98.5227 21.1073 100.179 22.213 101.56C23.3188 102.941 24.4245 105.15 24.9774 106.53C25.2538 107.911 25.5303 108.739 25.5303 109.015C25.5303 109.291 25.8067 110.396 25.8067 110.672H30.2297V95.2093H26.9125C26.9125 95.2093 26.636 96.0377 26.0831 96.3138C25.5303 96.5899 25.2538 96.3138 24.9774 96.3138C24.7009 96.0377 21.9366 94.9332 18.6194 94.3809C15.3022 93.8287 11.1556 94.1048 8.39123 95.4854C6.73262 96.3138 5.62687 97.1421 4.24469 98.2466C3.13895 99.3511 2.03321 101.008 1.48034 102.388C0.374593 105.15 0.0981827 108.463 1.20393 111.5C2.30967 114.538 4.24473 117.299 6.17978 119.232L10.0499 123.097C11.7085 124.754 13.6435 126.687 14.1964 127.515C15.5786 128.896 16.9607 130.276 18.8958 132.485C20.8308 134.97 21.3837 136.903 21.1073 139.112C20.8309 141.321 19.7251 142.426 18.6194 143.254C17.2372 144.082 15.3021 144.359 13.3671 143.53C11.432 142.702 10.0499 141.321 9.497 140.217C8.66769 139.112 7.83838 136.903 7.2855 135.247C6.73263 133.59 6.17978 131.381 6.17978 131.381H2.30965V147.12H5.07401C5.35045 146.844 5.90332 146.015 6.45619 145.739C7.2855 145.187 8.11483 145.463 8.94413 145.739C9.77344 146.015 10.6027 146.568 11.9849 146.844C13.92 147.396 15.855 147.672 18.3429 147.672C21.1073 147.396 21.9366 147.12 23.5952 146.291C25.5302 145.463 27.7417 143.806 29.4004 140.769C31.059 137.456 31.3354 133.59 30.7825 130.553C30.2297 127.515 28.5711 125.306 26.0831 122.269Z" fill="black"></path><path d="M94.9154 94.9329C89.1102 94.9329 73.6298 98.5224 73.6298 121.44C73.6298 144.082 88.2809 148.5 94.9154 148.5C101.55 148.5 116.201 144.082 116.201 121.44C116.201 98.5224 100.444 94.9329 94.9154 94.9329ZM101.273 138.836C99.8912 141.873 98.509 144.634 94.9154 144.634C91.3217 144.634 88.8338 140.769 88.0045 138.007C87.4516 135.246 86.3459 129.172 86.6223 121.164C86.6223 113.433 87.4516 107.634 88.0045 105.425C88.5573 103.216 90.4924 98.5224 94.9154 98.5224C97.9562 98.5224 100.444 101.008 101.55 104.597C102.656 108.187 103.208 116.194 103.208 121.164C103.208 126.134 102.656 135.799 101.273 138.836Z" fill="black"></path><path d="M226.777 52.6866L215.996 0.5L205.492 52.6866L153.245 63.1791L205.492 73.6716L215.996 125.858L226.501 73.6716L278.747 63.1791L226.777 52.6866ZM159.88 63.1791L206.045 53.791L215.167 63.1791H159.88ZM215.996 119.231L206.598 73.1194L215.996 64.0075V119.231ZM215.996 7.12685L225.395 53.2388L215.996 62.3507V7.12685ZM226.224 72.5672L217.102 63.1791H272.389L226.224 72.5672Z" fill="black"></path><path d="M381.578 99.6272C385.448 100.179 386.278 102.665 386.278 108.187V127.791H386.001L366.651 96.0377H353.382V99.9033C355.317 100.456 358.358 104.321 358.358 104.321V134.418C358.081 138.008 358.081 141.597 356.423 143.254C355.87 143.806 355.317 143.806 354.488 143.806C352.552 143.806 351.447 142.15 349.512 134.694L339.56 96.0377H328.779L329.885 100.179L320.486 132.762C318.274 140.769 317.169 143.254 314.681 144.635V147.672H327.397V144.635C324.909 143.806 323.803 141.597 323.803 139.388C323.803 138.284 324.356 136.351 324.632 134.971L326.015 130.276H337.349L338.731 136.075C339.284 138.56 339.56 139.665 339.56 140.493C339.56 142.426 338.454 144.359 336.519 144.911V147.948H367.756V144.635C363.61 143.806 362.504 140.493 362.504 135.799V108.187L362.781 108.463L386.831 147.948H390.424V106.806C390.424 102.388 390.701 100.179 393.741 99.6272V95.7615H381.302V99.6272H381.578ZM327.673 125.306L332.096 107.359H332.373L336.519 125.306H327.673Z" fill="black"></path><path d="M410.883 95.7611H395.956V99.6268C397.891 100.179 398.443 102.112 398.443 104.321V138.007C398.443 141.597 398.443 143.254 395.956 143.53V147.396H412.265C428.575 147.396 432.169 133.866 432.169 121.44C432.169 102.94 424.981 95.7611 410.883 95.7611ZM413.095 143.806C410.607 143.806 409.224 142.701 409.224 138.007V99.6268H410.607C415.859 99.6268 420.282 103.769 420.282 121.164C420.282 134.418 418.9 143.806 413.095 143.806Z" fill="black"></path><path d="M300.859 143.806C298.094 143.806 298.371 141.045 298.371 135.798V104.873C298.371 101.56 299.2 99.9029 302.517 99.6268V95.7611H284.549V99.6268C287.313 99.9029 288.143 101.284 288.143 104.873V138.56C288.143 141.873 287.59 143.53 284.549 143.806V147.672H312.746L314.404 134.694H311.363C308.875 140.492 304.729 143.806 300.859 143.806Z" fill="black"></path></svg>